<svg xmlns="http://www.w3.org/2000/svg" viewBox="0 0 221.12 115.1"><defs><style>.cls-1{fill:#fff;}.cls-2{fill:#e6174c;}</style></defs><g id="Layer_2" data-name="Layer 2"><g id="Layer_1-2" data-name="Layer 1"><path class="cls-1" d="M74.65,52.78v50.9h-27V60.75c0-6.62-3.78-10.4-9.31-10.4-7,0-11.07,6.08-11.34,14.18v39.15H0V0H27V38.07c6.34-7.56,13.5-10.4,22.14-10.4C64.93,27.67,74.65,37.26,74.65,52.78Z"/><path class="cls-1" d="M135,99.09c-6.54,8.15-17.94,6.73-28.83,6.61-15.8-.17-25.65-9.58-25.65-25.11V29.7h27V72.63c0,6.61,3.92,10.39,9.32,10.39C124,83,127.94,77,128.21,68.85V29.7l20.27,26,5.21,6.2-3.93,3.53,14.38.48"/><path class="cls-1" d="M194.37,67.66l26.75,36H190.88l-11.68-17-3-4.82M192.9,29.7h26.6M158.31,57.77l-21-28.07h30.37l8.21,12.09"/><path class="cls-2" d="M198.45,58.94l-10.7,0,33.14-29.2h-27l-33.32,32,13.15.39-45.85,53Z"/></g></g></svg>