<?xml version="1.0" encoding="UTF-8" standalone="no"?><!-- Generator: Gravit.io --><svg xmlns="http://www.w3.org/2000/svg" xmlns:xlink="http://www.w3.org/1999/xlink" style="isolation:isolate" viewBox="0 0 221.12 115.1" width="221.12pt" height="115.1pt"><defs><clipPath id="_clipPath_GPU10aTeuiTGIawWUkKXZKTnVPqajFkg"><rect width="221.12" height="115.1"/></clipPath></defs><g clip-path="url(#_clipPath_GPU10aTeuiTGIawWUkKXZKTnVPqajFkg)"><g><path d=" M 74.65 52.78 L 74.65 103.68 L 47.65 103.68 L 47.65 60.75 C 47.65 54.13 43.87 50.35 38.34 50.35 C 31.34 50.35 27.27 56.43 27 64.53 L 27 103.68 L 0 103.68 L 0 0 L 27 0 L 27 38.07 C 33.34 30.51 40.5 27.67 49.14 27.67 C 64.93 27.67 74.65 37.26 74.65 52.78 Z " fill="rgb(255,255,255)"/><path d=" M 135 99.09 C 128.46 107.24 117.06 105.82 106.17 105.7 C 90.37 105.53 80.52 96.12 80.52 80.59 L 80.52 29.7 L 107.52 29.7 L 107.52 72.63 C 107.52 79.24 111.44 83.02 116.84 83.02 C 124 83 127.94 77 128.21 68.85 L 128.21 29.7 L 148.48 55.7 L 153.69 61.9 L 149.76 65.43 L 164.14 65.91" fill="rgb(255,255,255)"/><path d=" M 194.37 67.66 L 221.12 103.66 L 190.88 103.66 L 179.2 86.66 L 176.2 81.84 M 192.9 29.7 L 219.5 29.7 M 158.31 57.77 L 137.31 29.7 L 167.68 29.7 L 175.89 41.79" fill="rgb(255,255,255)"/><path d=" M 198.45 58.94 L 187.75 58.94 L 220.89 29.74 L 193.89 29.74 L 160.57 61.74 L 173.72 62.13 L 127.87 115.13 L 198.45 58.94 Z " fill="rgb(230,23,76)"/></g></g></svg>