<?xml version="1.0" encoding="UTF-8" standalone="no"?><!-- Generator: Gravit.io --><svg xmlns="http://www.w3.org/2000/svg" xmlns:xlink="http://www.w3.org/1999/xlink" style="isolation:isolate" viewBox="0 0 962.1 256.1" width="962.1pt" height="256.1pt"><defs><clipPath id="_clipPath_uJbYTH7gvssHVF8BVVsTRKXXlqEgEDFC"><rect width="962.1" height="256.1"/></clipPath></defs><g clip-path="url(#_clipPath_uJbYTH7gvssHVF8BVVsTRKXXlqEgEDFC)"><mask id="_mask_p42CrnRYd7i7FiQsGowgbquVx1wijlJW"><rect x="707" y="2" width="252" height="252.149" fill="white" stroke="none"/></mask><rect x="707" y="2" width="252" height="252.149" transform="matrix(1,0,0,1,0,0)" fill="none"/><rect x="707" y="2" width="252" height="252.149" transform="matrix(1,0,0,1,0,0)" fill="none" mask="url(#_mask_p42CrnRYd7i7FiQsGowgbquVx1wijlJW)" vector-effect="non-scaling-stroke" stroke-width="6" stroke-dasharray="1,0,8" stroke="rgb(102,111,117)" stroke-linejoin="miter" stroke-linecap="square" stroke-miterlimit="2"/><mask id="_mask_5wcrdenJuALQnE5kEeoZyNvWh4sqaEf9"><rect x="2" y="2" width="657" height="252" fill="white" stroke="none"/></mask><rect x="2" y="2" width="657" height="252" transform="matrix(1,0,0,1,0,0)" fill="none"/><rect x="2" y="2" width="657" height="252" transform="matrix(1,0,0,1,0,0)" fill="none" mask="url(#_mask_5wcrdenJuALQnE5kEeoZyNvWh4sqaEf9)" vector-effect="non-scaling-stroke" stroke-width="6" stroke-dasharray="1,0,8" stroke="rgb(102,111,117)" stroke-linejoin="miter" stroke-linecap="square" stroke-miterlimit="2"/><circle vector-effect="non-scaling-stroke" cx="473.99999999999864" cy="129.99999999999963" r="75" fill="rgb(41,50,56)"/><g><path d=" M 489.7 130.96 L 516.45 166.96 L 486.21 166.96 L 474.53 149.96 L 471.53 145.14 M 488.23 93 L 514.83 93 M 453.64 121.07 L 432.64 93 L 463.01 93 L 471.22 105.09" fill="rgb(255,255,255)"/><path d=" M 493.78 122.24 L 483.08 122.24 L 516.22 93.04 L 489.22 93.04 L 455.9 125.04 L 469.05 125.43 L 423.2 178.43 L 493.78 122.24 Z " fill="rgb(230,23,76)"/></g><path d="M 45 54 L 270 54 C 272.76 54 275 56.24 275 59 L 275 199 C 275 201.76 272.76 204 270 204 L 45 204 C 42.24 204 40 201.76 40 199 L 40 59 C 40 56.24 42.24 54 45 54 Z" style="stroke:none;fill:#293238;stroke-miterlimit:10;"/><path d="M 814.883 55 L 913.117 55 C 914.156 55 915 55.844 915 56.883 L 915 102.117 C 915 103.156 914.156 104 913.117 104 L 814.883 104 C 813.844 104 813 103.156 813 102.117 L 813 56.883 C 813 55.844 813.844 55 814.883 55 Z" style="stroke:none;fill:#293238;stroke-miterlimit:10;"/><path d="M 814.844 106.15 L 913.156 106.15 C 914.174 106.15 915 106.976 915 107.994 L 915 151.306 C 915 152.324 914.174 153.15 913.156 153.15 L 814.844 153.15 C 813.826 153.15 813 152.324 813 151.306 L 813 107.994 C 813 106.976 813.826 106.15 814.844 106.15 Z" style="stroke:none;fill:#293238;stroke-miterlimit:10;"/><path d="M 814.883 156 L 913.117 156 C 914.156 156 915 156.844 915 157.883 L 915 203.117 C 915 204.156 914.156 205 913.117 205 L 814.883 205 C 813.844 205 813 204.156 813 203.117 L 813 157.883 C 813 156.844 813.844 156 814.883 156 Z" style="stroke:none;fill:#293238;stroke-miterlimit:10;"/><path d="M 90 219 L 227 219 C 229.76 219 232 216.76 232 214 L 232 214 C 232 211.24 229.76 209 227 209 L 90 209 C 87.24 209 85 211.24 85 214 L 85 214 C 85 216.76 87.24 219 90 219 Z" style="stroke:none;fill:#293238;stroke-miterlimit:10;"/><path d="M 49 59.3 L 265 59.3 C 266.656 59.3 268 60.644 268 62.3 L 268 195 C 268 196.656 266.656 198 265 198 L 49 198 C 47.344 198 46 196.656 46 195 L 46 62.3 C 46 60.644 47.344 59.3 49 59.3 Z" style="stroke:none;fill:#39434A;stroke-miterlimit:10;"/><rect x="292" y="115" width="82" height="8" transform="matrix(1,0,0,1,0,0)" fill="rgb(41,50,56)"/><polygon points="368.737,130,368.835,107.938,387.892,119.054" fill="rgb(41,50,56)"/><rect x="305.892" y="142.715" width="82" height="8" transform="matrix(-1,0,0,-1,693.785,293.43)" fill="rgb(41,50,56)"/><polygon points="311.156,135.715,311.057,157.777,292,146.661" fill="rgb(41,50,56)"/><rect x="563" y="115" width="220" height="8" transform="matrix(1,0,0,1,0,0)" fill="rgb(41,50,56)"/><polygon points="779,130,779.099,107.938,798.156,119.054" fill="rgb(41,50,56)"/><rect x="576.892" y="142.715" width="221.263" height="8" transform="matrix(-1,0,0,-1,1375.048,293.43)" fill="rgb(41,50,56)"/><polygon points="582.156,135.715,582.057,157.777,563,146.661" fill="rgb(41,50,56)"/><circle vector-effect="non-scaling-stroke" cx="825.5000000000022" cy="68.50000000000017" r="4.5" fill="rgb(89,215,127)"/><circle vector-effect="non-scaling-stroke" cx="825.5000000000022" cy="119.50000000000014" r="4.5" fill="rgb(89,215,127)"/><circle vector-effect="non-scaling-stroke" cx="825.5000000000022" cy="168.50000000000028" r="4.5" fill="rgb(89,215,127)"/><rect x="76" y="124" width="7" height="52" transform="matrix(1,0,0,1,0,0)" fill="rgb(79,90,98)"/><rect x="93" y="93" width="7" height="83" transform="matrix(1,0,0,1,0,0)" fill="rgb(79,90,98)"/><rect x="110" y="135.715" width="7" height="40.285" transform="matrix(1,0,0,1,0,0)" fill="rgb(79,90,98)"/><rect x="127" y="107.938" width="7" height="68.062" transform="matrix(1,0,0,1,0,0)" fill="rgb(79,90,98)"/><rect x="144" y="84" width="7" height="92" transform="matrix(1,0,0,1,0,0)" fill="rgb(79,90,98)"/><rect x="161" y="119.5" width="7" height="56.5" transform="matrix(1,0,0,1,0,0)" fill="rgb(79,90,98)"/><rect x="178" y="132" width="7" height="44" transform="matrix(1,0,0,1,0,0)" fill="rgb(79,90,98)"/><rect x="195" y="102" width="7" height="74" transform="matrix(1,0,0,1,0,0)" fill="rgb(230,23,76)"/><rect x="212" y="154" width="7" height="22" transform="matrix(1,0,0,1,0,0)" fill="rgb(79,90,98)"/><rect x="229" y="115" width="7" height="61" transform="matrix(1,0,0,1,0,0)" fill="rgb(79,90,98)"/></g></svg>