<svg xmlns="http://www.w3.org/2000/svg" style="isolation:isolate" viewBox="0 0 962.1 256.1" width="1282.8" height="256.1pt"><defs><clipPath id="a"><path d="M0 0h962.1v256.1H0z"/></clipPath></defs><g clip-path="url(#a)"><mask id="b"><path fill="#fff" d="M707 2h252v252.149H707z"/></mask><path fill="none" d="M707 2h252v252.149H707z"/><path fill="none" mask="url(#b)" vector-effect="non-scaling-stroke" stroke-width="6" stroke-dasharray="1,0,8" stroke="#666F75" stroke-linecap="square" stroke-miterlimit="2" d="M707 2h252v252.149H707z"/><mask id="c"><path fill="#fff" d="M2 2h657v252H2z"/></mask><path fill="none" d="M2 2h657v252H2z"/><path fill="none" mask="url(#c)" vector-effect="non-scaling-stroke" stroke-width="6" stroke-dasharray="1,0,8" stroke="#666F75" stroke-linecap="square" stroke-miterlimit="2" d="M2 2h657v252H2z"/><circle vector-effect="non-scaling-stroke" cx="474" cy="130" r="75" fill="#293238"/><path d="M489.7 130.96l26.75 36h-30.24l-11.68-17-3-4.82M488.23 93h26.6m-61.19 28.07l-21-28.07h30.37l8.21 12.09" fill="#FFF"/><path d="M493.78 122.24h-10.7l33.14-29.2h-27l-33.32 32 13.15.39-45.85 53 70.58-56.19z" fill="#E6174C"/><path d="M45 54h225c2.76 0 5 2.24 5 5v140c0 2.76-2.24 5-5 5H45c-2.76 0-5-2.24-5-5V59c0-2.76 2.24-5 5-5zm769.883 1h98.234c1.039 0 1.883.844 1.883 1.883v45.234a1.884 1.884 0 01-1.883 1.883h-98.234a1.884 1.884 0 01-1.883-1.883V56.883c0-1.039.844-1.883 1.883-1.883zm-.039 51.15h98.312c1.018 0 1.844.826 1.844 1.844v43.312a1.845 1.845 0 01-1.844 1.844h-98.312a1.845 1.845 0 01-1.844-1.844v-43.312c0-1.018.826-1.844 1.844-1.844zm.039 49.85h98.234c1.039 0 1.883.844 1.883 1.883v45.234a1.884 1.884 0 01-1.883 1.883h-98.234a1.884 1.884 0 01-1.883-1.883v-45.234c0-1.039.844-1.883 1.883-1.883zM90 219h137c2.76 0 5-2.24 5-5s-2.24-5-5-5H90c-2.76 0-5 2.24-5 5s2.24 5 5 5z" fill="#293238"/><path d="M49 59.3h216c1.656 0 3 1.344 3 3V195c0 1.656-1.344 3-3 3H49c-1.656 0-3-1.344-3-3V62.3c0-1.656 1.344-3 3-3z" fill="#39434a"/><path fill="#293238" d="M292 115h82v8h-82z"/><path fill="#293238" d="M368.737 130l.098-22.062 19.057 11.116zm19.156 20.715h-82v-8h82z"/><path fill="#293238" d="M311.156 135.715l-.099 22.062L292 146.661zM563 115h220v8H563z"/><path fill="#293238" d="M779 130l.099-22.062 19.057 11.116zm19.156 20.715H576.893v-8h221.263z"/><path fill="#293238" d="M582.156 135.715l-.099 22.062L563 146.661z"/><circle vector-effect="non-scaling-stroke" cx="825.5" cy="68.5" r="4.5" fill="#59D77F"/><circle vector-effect="non-scaling-stroke" cx="825.5" cy="119.5" r="4.5" fill="#59D77F"/><circle vector-effect="non-scaling-stroke" cx="825.5" cy="168.5" r="4.5" fill="#59D77F"/><path fill="#4F5A62" d="M76 124h7v52h-7zm17-31h7v83h-7zm17 42.715h7V176h-7zm17-27.777h7V176h-7zM144 84h7v92h-7zm17 35.5h7V176h-7zm17 12.5h7v44h-7z"/><path fill="#E6174C" d="M195 102h7v74h-7z"/><path fill="#4F5A62" d="M212 154h7v22h-7zm17-39h7v61h-7z"/></g></svg>