<svg xmlns="http://www.w3.org/2000/svg" style="isolation:isolate" viewBox="0 0 221.12 115.1" width="294.827" height="115.1pt"><defs><clipPath id="a"><path d="M0 0h221.12v115.1H0z"/></clipPath></defs><g clip-path="url(#a)"><path d="M74.65 52.78v50.9h-27V60.75c0-6.62-3.78-10.4-9.31-10.4-7 0-11.07 6.08-11.34 14.18v39.15H0V0h27v38.07c6.34-7.56 13.5-10.4 22.14-10.4 15.79 0 25.51 9.59 25.51 25.11zM135 99.09c-6.54 8.15-17.94 6.73-28.83 6.61-15.8-.17-25.65-9.58-25.65-25.11V29.7h27v42.93c0 6.61 3.92 10.39 9.32 10.39C124 83 127.94 77 128.21 68.85V29.7l20.27 26 5.21 6.2-3.93 3.53 14.38.48m30.23 1.75l26.75 36h-30.24l-11.68-17-3-4.82m16.7-52.14h26.6m-61.19 28.07l-21-28.07h30.37l8.21 12.09" fill="#FFF"/><path d="M198.45 58.94h-10.7l33.14-29.2h-27l-33.32 32 13.15.39-45.85 53 70.58-56.19z" fill="#E6174C"/></g></svg>