<svg xmlns="http://www.w3.org/2000/svg" style="isolation:isolate" viewBox="0 0 214.12 114.42" width="285.493" height="152.56"><defs><clipPath id="a"><path d="M0 0h214.12v114.42H0z"/></clipPath></defs><g clip-path="url(#a)"><path d="M74.65 52.78v50.9h-27V60.75c0-6.62-3.78-10.4-9.31-10.4-7 0-11.07 6.08-11.34 14.18v39.15H0V0h27v38.07c6.34-7.56 13.5-10.4 22.14-10.4 15.79 0 25.51 9.59 25.51 25.11zM132 99.09c-6.54 8.15-17.94 6.73-28.83 6.61-15.8-.17-25.65-9.58-25.65-25.11V29.7h27v42.93c0 6.61 3.92 10.39 9.32 10.39C121 83 124.94 77 125.21 68.85V29.7l20.27 26 4.29 5.42-2.7 2.51 14.83.5" fill="#2F4858"/><path d="M186 66.14l28.1 37.54h-30.22l-11.68-17-4.2-6.16m17.9-50.82h26.6m-60.34 29.2l-21.87-29.2h30.37l9 13.27" fill="#2F4858"/><path d="M191.05 59.76l-10.3-.86 33.14-29.2h-27l-35.06 32.39 14.17.47-43.38 51.86 68.43-54.66z" fill="#ED094A"/></g></svg>